<svg width="24" height="24" viewBox="0 0 24 24" fill="none" xmlns="http://www.w3.org/2000/svg">
<path d="M3.6002 3.6H6.0002V6H3.6002V3.6Z" fill="#2C0CB9"/>
<path d="M6.0002 6H8.4002V8.4H6.0002V6Z" fill="#2C0CB9"/>
<path d="M8.4002 8.4H10.8002V10.8H8.4002V8.4Z" fill="#2C0CB9"/>
<path d="M10.8002 10.8H13.2002V13.2H10.8002V10.8Z" fill="#2C0CB9"/>
<path d="M13.2002 13.2H15.6002V15.6H13.2002V13.2Z" fill="#2C0CB9"/>
<path d="M15.6002 15.6H18.0002V18H15.6002V15.6Z" fill="#2C0CB9"/>
<path d="M18.0002 18H20.4002V20.4H18.0002V18Z" fill="#2C0CB9"/>
<path d="M20.4002 3.6H18.0002V6H20.4002V3.6Z" fill="#2C0CB9"/>
<path d="M18.0002 6H15.6002V8.4H18.0002V6Z" fill="#2C0CB9"/>
<path d="M15.6002 8.4H13.2002V10.8H15.6002V8.4Z" fill="#2C0CB9"/>
<path d="M13.2002 10.8H10.8002V13.2H13.2002V10.8Z" fill="#2C0CB9"/>
<path d="M10.8002 13.2H8.4002V15.6H10.8002V13.2Z" fill="#2C0CB9"/>
<path d="M8.4002 15.6H6.0002V18H8.4002V15.6Z" fill="#2C0CB9"/>
<path d="M6.0002 18H3.6002V20.4H6.0002V18Z" fill="#2C0CB9"/>
<path d="M1.2002 1.2H3.6002V3.6H1.2002V1.2Z" fill="#2C0CB9"/>
<path d="M20.4002 1.2H22.8002V3.6H20.4002V1.2Z" fill="#2C0CB9"/>
<path d="M1.2002 20.4H3.6002V22.8H1.2002V20.4Z" fill="#2C0CB9"/>
<path d="M20.4002 20.4H22.8002V22.8H20.4002V20.4Z" fill="#2C0CB9"/>
</svg>
