<svg width="24" height="24" viewBox="0 0 24 24" fill="none" xmlns="http://www.w3.org/2000/svg">
<rect width="24" height="24" fill="#F9D7EF"/>
<g clip-path="url(#clip0_168_1659)">
<path d="M16.6665 10.25H11.4165C10.7722 10.25 10.2499 10.7723 10.2499 11.4167V16.6667C10.2499 17.311 10.7722 17.8333 11.4165 17.8333H16.6665C17.3109 17.8333 17.8332 17.311 17.8332 16.6667V11.4167C17.8332 10.7723 17.3109 10.25 16.6665 10.25Z" stroke="#2C0CB9" stroke-width="0.875" stroke-linecap="round" stroke-linejoin="round"/>
<path d="M7.91663 13.7501H7.33329C7.02387 13.7501 6.72713 13.6272 6.50833 13.4084C6.28954 13.1896 6.16663 12.8928 6.16663 12.5834V7.33341C6.16663 7.024 6.28954 6.72725 6.50833 6.50846C6.72713 6.28966 7.02387 6.16675 7.33329 6.16675H12.5833C12.8927 6.16675 13.1895 6.28966 13.4083 6.50846C13.627 6.72725 13.75 7.024 13.75 7.33341V7.91675" stroke="#2C0CB9" stroke-width="0.875" stroke-linecap="round" stroke-linejoin="round"/>
</g>
<defs>
<clipPath id="clip0_168_1659">
<rect width="14" height="14" fill="white" transform="translate(5 5)"/>
</clipPath>
</defs>
</svg>
