<svg width="12" height="12" viewBox="0 0 12 12" fill="none" xmlns="http://www.w3.org/2000/svg">
<path d="M5.90321 7.83675L5.90393 4.60651L2.8031 5.9672L5.90321 7.83675Z" fill="#90A9EB"/>
<path d="M5.92089 4.60651L5.92017 7.83752L9.02159 5.9672L5.92089 4.60651Z" fill="#C6B4F0"/>
<path d="M9.01837 5.94911L5.92017 0.858643L5.92089 4.58985L9.01837 5.94911Z" fill="#C7F8F6"/>
<path d="M5.92045 8.36513L5.92017 10.8588L9.02418 6.58539L5.92045 8.36513Z" fill="#C5B2F1"/>
<path d="M5.90327 10.8571L5.90356 8.3646L2.80054 6.58539L5.90327 10.8571Z" fill="#EACEC6"/>
<path d="M2.8064 5.94913L5.90404 4.58985L5.90332 0.860596L2.8064 5.94913Z" fill="#EACEC4"/>
<path d="M5.91208 7.85998L5.91813 7.85662L9.0425 5.97248L9.04888 5.96869L5.91962 0.826808L5.91237 0.815979L5.90493 0.826808L2.77539 5.96869L5.90613 7.85672L5.91208 7.85998ZM9.01811 5.9491L5.92062 4.58984L5.92005 0.858641L9.01811 5.9491ZM5.92062 4.60654L9.02133 5.96725L5.92005 7.83757L5.92062 4.60654ZM5.9032 7.83675L2.8031 5.96725L5.90392 4.60654L5.9032 7.83675ZM2.80628 5.9491L5.9032 0.8606L5.90392 4.58984L2.80628 5.9491Z" fill="#686DCC"/>
<path d="M2.74438 6.53534L5.90673 10.889L5.91239 10.896L5.9182 10.889L9.08039 6.53534L5.91239 8.3519L2.74438 6.53534ZM5.90341 10.8572L2.80066 6.58545L5.9037 8.36467L5.90341 10.8572ZM5.92036 8.3652L9.02409 6.58545L5.92021 10.8588L5.92036 8.3652Z" fill="#686DCC"/>
</svg>
