<svg width="12" height="12" viewBox="0 0 12 12" fill="none" xmlns="http://www.w3.org/2000/svg">
<path d="M5.90326 7.83681L5.90398 4.60657L2.80315 5.96726L5.90326 7.83681Z" fill="#90A9EB"/>
<path d="M5.92083 4.60657L5.9201 7.83758L9.02153 5.96726L5.92083 4.60657Z" fill="#C6B4F0"/>
<path d="M9.01831 5.94911L5.9201 0.858643L5.92083 4.58985L9.01831 5.94911Z" fill="#C7F8F6"/>
<path d="M5.92039 8.36519L5.9201 10.8588L9.02412 6.58545L5.92039 8.36519Z" fill="#C5B2F1"/>
<path d="M5.90329 10.8571L5.90357 8.36467L2.80055 6.58545L5.90329 10.8571Z" fill="#EACEC6"/>
<path d="M2.80641 5.94913L5.90405 4.58985L5.90333 0.860596L2.80641 5.94913Z" fill="#EACEC4"/>
<path d="M5.91211 7.86005L5.91816 7.85669L9.04253 5.97254L9.04891 5.96875L5.91965 0.826869L5.9124 0.81604L5.90496 0.826869L2.77542 5.96875L5.90616 7.85678L5.91211 7.86005ZM9.01814 5.94917L5.92065 4.58991L5.92008 0.858702L9.01814 5.94917ZM5.92065 4.60661L9.02136 5.96731L5.92008 7.83763L5.92065 4.60661ZM5.90323 7.83681L2.80313 5.96731L5.90395 4.60661L5.90323 7.83681ZM2.80631 5.94917L5.90323 0.860661L5.90395 4.58991L2.80631 5.94917Z" fill="#686DCC"/>
<path d="M2.74432 6.5354L5.90666 10.889L5.91233 10.8961L5.91814 10.889L9.08033 6.5354L5.91233 8.35196L2.74432 6.5354ZM5.90335 10.8572L2.8006 6.58551L5.90364 8.36473L5.90335 10.8572ZM5.9203 8.36526L9.02402 6.58551L5.92015 10.8589L5.9203 8.36526Z" fill="#686DCC"/>
</svg>
