<svg width="20" height="20" viewBox="0 0 20 20" fill="none" xmlns="http://www.w3.org/2000/svg">
<path d="M10 0.833332C7.59459 0.808889 5.27786 1.7405 3.55898 3.42344C1.84011 5.10637 0.859758 7.40291 0.833374 9.80833C0.842643 11.7093 1.45416 13.5584 2.58009 15.0901C3.70603 16.6218 5.28844 17.7572 7.10004 18.3333C7.55837 18.4167 7.72504 18.1417 7.72504 17.9V16.375C5.17504 16.9167 4.63337 15.175 4.63337 15.175C4.46362 14.6282 4.10273 14.1609 3.61671 13.8583C2.78337 13.3083 3.68337 13.3167 3.68337 13.3167C3.97142 13.3552 4.247 13.4584 4.48947 13.6186C4.73193 13.7788 4.93497 13.9918 5.08337 14.2417C5.34198 14.6901 5.76632 15.0191 6.26505 15.1578C6.76378 15.2965 7.29704 15.2338 7.75004 14.9833C7.79663 14.527 8.00328 14.1019 8.33337 13.7833C6.30004 13.5583 4.16671 12.7917 4.16671 9.35C4.14852 8.45223 4.48024 7.58259 5.09171 6.925C4.81323 6.15422 4.84611 5.30526 5.18337 4.55833C5.18337 4.55833 5.95837 4.31667 7.68337 5.475C9.18495 5.07486 10.7651 5.07486 12.2667 5.475C14.0167 4.31667 14.7667 4.55833 14.7667 4.55833C15.104 5.30526 15.1369 6.15422 14.8584 6.925C15.484 7.57054 15.8338 8.43434 15.8334 9.33333C15.8334 12.7833 13.6834 13.5417 11.6667 13.7667C11.8875 13.9811 12.0581 14.2417 12.1662 14.5299C12.2742 14.8181 12.3171 15.1266 12.2917 15.4333V17.8917C12.2917 18.1833 12.4584 18.4167 12.9167 18.325C14.7232 17.7453 16.3003 16.6096 17.4227 15.0801C18.5452 13.5506 19.1555 11.7055 19.1667 9.80833C19.1403 7.40291 18.16 5.10637 16.4411 3.42344C14.7222 1.7405 12.4055 0.808889 10 0.833332Z" fill="#707A8A"/>
</svg>
