<svg width="32" height="32" viewBox="0 0 32 32" fill="none" xmlns="http://www.w3.org/2000/svg">
<path d="M4.50647 6.32804C4.50647 7.46083 4.95647 8.54723 5.75748 9.34823C6.55848 10.1492 7.64488 10.5992 8.77767 10.5992C9.91047 10.5992 10.9969 10.1492 11.7979 9.34823C12.5989 8.54723 13.0489 7.46083 13.0489 6.32804C13.0489 5.76713 12.9384 5.21172 12.7237 4.69352C12.5091 4.17531 12.1945 3.70446 11.7979 3.30784C11.4013 2.91122 10.9304 2.59661 10.4122 2.38196C9.89398 2.16731 9.33858 2.05683 8.77767 2.05683C8.21677 2.05683 7.66136 2.16731 7.14315 2.38196C6.62495 2.59661 6.15409 2.91122 5.75748 3.30784C5.36086 3.70446 5.04624 4.17531 4.83159 4.69352C4.61695 5.21172 4.50647 5.76713 4.50647 6.32804ZM1.30406 15.4032C1.30264 15.8949 1.39825 16.3819 1.5854 16.8366C1.77256 17.2912 2.04758 17.7044 2.39472 18.0525C2.74185 18.4007 3.15427 18.6769 3.60835 18.8654C4.06242 19.0538 4.54922 19.1508 5.04086 19.1508C5.53249 19.1508 6.0193 19.0538 6.47337 18.8654C6.92745 18.6769 7.33987 18.4007 7.687 18.0525C8.03414 17.7044 8.30916 17.2912 8.49632 16.8366C8.68347 16.3819 8.77908 15.8949 8.77766 15.4032C8.77908 14.9116 8.68347 14.4245 8.49632 13.9699C8.30916 13.5153 8.03414 13.1021 7.687 12.7539C7.33987 12.4058 6.92745 12.1296 6.47337 11.9411C6.0193 11.7526 5.53249 11.6556 5.04086 11.6556C4.54922 11.6556 4.06242 11.7526 3.60835 11.9411C3.15427 12.1296 2.74185 12.4058 2.39472 12.7539C2.04758 13.1021 1.77256 13.5153 1.5854 13.9699C1.39825 14.4245 1.30264 14.9116 1.30406 15.4032ZM4.50725 23.4112C4.50725 24.2608 4.84473 25.0755 5.44545 25.6762C6.04616 26.2769 6.86091 26.6144 7.71045 26.6144C8.56 26.6144 9.37474 26.2769 9.97546 25.6762C10.5762 25.0755 10.9137 24.2608 10.9137 23.4112C10.9137 22.5617 10.5762 21.7469 9.97546 21.1462C9.37474 20.5455 8.56 20.208 7.71045 20.208C6.86091 20.208 6.04616 20.5455 5.44545 21.1462C4.84473 21.7469 4.50725 22.5617 4.50725 23.4112ZM13.6001 26.9352C13.6001 27.6778 13.8951 28.39 14.4202 28.9151C14.9453 29.4402 15.6575 29.7352 16.4001 29.7352C17.1427 29.7352 17.8549 29.4402 18.38 28.9151C18.9051 28.39 19.2001 27.6778 19.2001 26.9352C19.2001 26.1926 18.9051 25.4804 18.38 24.9553C17.8549 24.4302 17.1427 24.1352 16.4001 24.1352C15.6575 24.1352 14.9453 24.4302 14.4202 24.9553C13.8951 25.4804 13.6001 26.1926 13.6001 26.9352ZM22.6577 23.9457C22.6577 24.6537 22.9389 25.3327 23.4396 25.8334C23.9402 26.334 24.6192 26.6153 25.3273 26.6153C26.0353 26.6153 26.7143 26.334 27.215 25.8334C27.7156 25.3327 27.9969 24.6537 27.9969 23.9457C27.9969 23.2376 27.7156 22.5586 27.215 22.058C26.7143 21.5573 26.0353 21.2761 25.3273 21.2761C24.6192 21.2761 23.9402 21.5573 23.4396 22.058C22.9389 22.5586 22.6577 23.2376 22.6577 23.9457ZM26.9297 14.8696C26.9297 15.4359 27.1546 15.979 27.555 16.3794C27.9555 16.7799 28.4986 17.0048 29.0649 17.0048C29.6312 17.0048 30.1743 16.7799 30.5747 16.3794C30.9751 15.979 31.2001 15.4359 31.2001 14.8696C31.2001 14.3033 30.9751 13.7602 30.5747 13.3598C30.1743 12.9594 29.6312 12.7344 29.0649 12.7344C28.4986 12.7344 27.9555 12.9594 27.555 13.3598C27.1546 13.7602 26.9297 14.3033 26.9297 14.8696ZM23.7257 6.86163C23.7257 7.07195 23.7671 7.28022 23.8476 7.47453C23.9281 7.66885 24.0461 7.84541 24.1948 7.99413C24.3435 8.14285 24.5201 8.26082 24.7144 8.34131C24.9087 8.4218 25.117 8.46322 25.3273 8.46322C25.5376 8.46322 25.7459 8.4218 25.9402 8.34131C26.1345 8.26082 26.3111 8.14285 26.4598 7.99413C26.6085 7.84541 26.7265 7.66885 26.807 7.47453C26.8875 7.28022 26.9289 7.07195 26.9289 6.86163C26.9289 6.43686 26.7601 6.02948 26.4598 5.72912C26.1594 5.42876 25.752 5.26002 25.3273 5.26002C24.9025 5.26002 24.4951 5.42876 24.1948 5.72912C23.8944 6.02948 23.7257 6.43686 23.7257 6.86163ZM16.0001 2.66804C16.0001 2.80829 16.0277 2.94717 16.0814 3.07674C16.135 3.20632 16.2137 3.32405 16.3129 3.42323C16.412 3.5224 16.5298 3.60107 16.6594 3.65474C16.7889 3.70841 16.9278 3.73604 17.0681 3.73604C17.2083 3.73604 17.3472 3.70841 17.4768 3.65474C17.6063 3.60107 17.7241 3.5224 17.8233 3.42323C17.9224 3.32405 18.0011 3.20632 18.0548 3.07674C18.1084 2.94717 18.1361 2.80829 18.1361 2.66804C18.1361 2.52778 18.1084 2.38891 18.0548 2.25933C18.0011 2.12976 17.9224 2.01202 17.8233 1.91285C17.7241 1.81367 17.6063 1.73501 17.4768 1.68133C17.3472 1.62766 17.2083 1.60004 17.0681 1.60004C16.9278 1.60004 16.7889 1.62766 16.6594 1.68133C16.5298 1.73501 16.412 1.81367 16.3129 1.91285C16.2137 2.01202 16.135 2.12976 16.0814 2.25933C16.0277 2.38891 16.0001 2.52778 16.0001 2.66804Z" fill="#FF00FF"/>
</svg>
