<svg width="24" height="24" viewBox="0 0 24 24" fill="none" xmlns="http://www.w3.org/2000/svg">
<path d="M3.6001 7.19999L3.6001 4.79999L6.0001 4.79999V7.19999H3.6001Z" fill="#2C0CB9"/>
<path d="M3.6001 19.2L3.6001 16.8H6.0001V19.2H3.6001Z" fill="#2C0CB9"/>
<path d="M6.0001 13.2V10.8H8.4001V13.2H6.0001Z" fill="#2C0CB9"/>
<path d="M8.4001 7.19999V4.79999L10.8001 4.79999V7.19999H8.4001Z" fill="#2C0CB9"/>
<path d="M8.4001 19.2V16.8H10.8001V19.2H8.4001Z" fill="#2C0CB9"/>
<path d="M10.8001 13.2V10.8H13.2001V13.2H10.8001Z" fill="#2C0CB9"/>
<path d="M13.2001 7.19999V4.79999L15.6001 4.79999V7.19999H13.2001Z" fill="#2C0CB9"/>
<path d="M13.2001 19.2V16.8H15.6001V19.2H13.2001Z" fill="#2C0CB9"/>
<path d="M15.6001 13.2V10.8H18.0001V13.2H15.6001Z" fill="#2C0CB9"/>
<path d="M18.0001 7.19999V4.79999L20.4001 4.79999V7.19999H18.0001Z" fill="#2C0CB9"/>
<path d="M18.0001 19.2V16.8H20.4001V19.2H18.0001Z" fill="#2C0CB9"/>
</svg>
