<svg width="28" height="28" viewBox="0 0 28 28" fill="none" xmlns="http://www.w3.org/2000/svg">
<path d="M23.4632 4.37585L15.2644 10.465L16.7817 6.8731L23.464 4.37673L23.4632 4.37585Z" fill="#E2761B" stroke="#E2761B" stroke-width="0.08225" stroke-linejoin="round"/>
<path d="M4.53859 4.37585L12.6708 10.5219L11.2288 6.87223L4.53859 4.37585ZM20.5143 18.4896L18.3312 21.8347L23.0037 23.1201L24.346 18.564L20.5143 18.4896ZM3.67322 18.564L5.00759 23.1201L9.68009 21.8347L7.49609 18.4896L3.67322 18.564Z" fill="#E4761B" stroke="#E4761B" stroke-width="0.08225" stroke-linejoin="round"/>
<path d="M9.41589 12.8371L8.11389 14.8067L12.7523 15.0124L12.5878 10.0275L9.41589 12.8371ZM18.5859 12.8371L15.3729 9.96973L15.2661 15.0124L19.8966 14.8067L18.5859 12.8371ZM9.68014 21.8347L12.4653 20.475L10.0599 18.5964L9.68014 21.8347ZM15.5383 20.475L18.3313 21.8347L17.9436 18.5964L15.5383 20.475Z" fill="#E4761B" stroke="#E4761B" stroke-width="0.08225" stroke-linejoin="round"/>
<path d="M18.3312 21.8347L15.5382 20.475L15.7604 22.2959L15.7359 23.0624L18.3312 21.8347ZM9.68007 21.8347L12.2753 23.0624L12.2587 22.2959L12.4643 20.475L9.6792 21.8347H9.68007Z" fill="#D7C1B3" stroke="#D7C1B3" stroke-width="0.08225" stroke-linejoin="round"/>
<path d="M12.3157 17.3941L9.99255 16.7107L11.6323 15.9608L12.3148 17.3941H12.3157ZM15.6844 17.3941L16.3687 15.9608L18.0163 16.7107L15.6844 17.3941Z" fill="#233447" stroke="#233447" stroke-width="0.08225" stroke-linejoin="round"/>
<path d="M9.6802 21.8348L10.0757 18.4896L7.49707 18.564L9.6802 21.8348ZM17.9358 18.4896L18.3313 21.8348L20.5144 18.564L17.9358 18.4896ZM19.8958 14.8068L15.2662 15.0124L15.6949 17.3933L16.3792 15.96L18.0268 16.7099L19.8967 14.8068H19.8958ZM9.99345 16.7099L11.6411 15.96L12.3166 17.3933L12.7532 15.0124L8.11482 14.8068L9.99345 16.7099Z" fill="#CD6116" stroke="#CD6116" stroke-width="0.08225" stroke-linejoin="round"/>
<path d="M8.11389 14.8068L10.0581 18.5964L9.99252 16.7099L8.11389 14.8068ZM18.0259 16.7099L17.9436 18.5964L19.8966 14.8068L18.0259 16.7099ZM12.7531 15.0124L12.3156 17.3933L12.8599 20.2029L12.9824 16.5034L12.7523 15.0124H12.7531ZM15.2661 15.0124L15.0439 16.4955L15.1428 20.2029L15.694 17.3933L15.2661 15.0124Z" fill="#E4751F" stroke="#E4751F" stroke-width="0.08225" stroke-linejoin="round"/>
<path d="M15.6941 17.3932L15.1419 20.2028L15.5374 20.475L17.9437 18.5963L18.0259 16.7098L15.6941 17.3932ZM9.99255 16.7098L10.0582 18.5963L12.4644 20.475L12.8599 20.2028L12.3157 17.3932L9.99255 16.7098Z" fill="#F6851B" stroke="#F6851B" stroke-width="0.08225" stroke-linejoin="round"/>
<path d="M15.7351 23.0623L15.7596 22.2958L15.5539 22.1147H12.4477L12.2578 22.2958L12.2744 23.0623L9.6792 21.8347L10.5857 22.5767L12.4232 23.8533H15.5784L17.4238 22.5767L18.3303 21.8347L15.7351 23.0623Z" fill="#C0AD9E" stroke="#C0AD9E" stroke-width="0.08225" stroke-linejoin="round"/>
<path d="M15.5366 20.475L15.1419 20.2029H12.8591L12.4636 20.475L12.2579 22.2959L12.4478 22.1148H15.5541L15.7597 22.2959L15.5366 20.475Z" fill="#161616" stroke="#161616" stroke-width="0.08225" stroke-linejoin="round"/>
<path d="M23.8096 10.8596L24.5096 7.49787L23.4631 4.375L15.5374 10.2576L18.5859 12.8363L22.8952 14.0971L23.8507 12.985L23.4386 12.6884L24.0975 12.0873L23.5865 11.6917L24.2454 11.1895L23.8096 10.8596ZM3.5 7.49875L4.2 10.8605L3.7555 11.1904L4.41438 11.6926L3.91213 12.0881L4.571 12.6892L4.15887 12.9859L5.1065 14.098L9.41588 12.8371L12.4644 10.2585L4.53775 4.37587L3.5 7.49875Z" fill="#763D16" stroke="#763D16" stroke-width="0.08225" stroke-linejoin="round"/>
<path d="M22.8952 14.0981L18.5858 12.8372L19.8957 14.8068L17.9427 18.5964L20.5135 18.5632H24.3442L22.8943 14.0972L22.8952 14.0981ZM9.41584 12.8372L5.10647 14.0981L3.67322 18.5641H7.49697L10.0581 18.5973L8.11384 14.8077L9.41584 12.8381V12.8372ZM15.2652 15.0124L15.5373 10.2586L16.7895 6.87231H11.228L12.4643 10.2586L12.7531 15.0124L12.8511 16.5122L12.8598 20.2038H15.1436L15.1593 16.5122L15.2652 15.0124Z" fill="#F6851B" stroke="#F6851B" stroke-width="0.08225" stroke-linejoin="round"/>
<g clip-path="url(#clip0_77_72)">
<path d="M22 27.5C23.0878 27.5 24.1512 27.1774 25.0556 26.5731C25.9601 25.9687 26.6651 25.1097 27.0814 24.1047C27.4976 23.0997 27.6065 21.9939 27.3944 20.927C27.1821 19.8601 26.6582 18.8801 25.8891 18.1109C25.1199 17.3417 24.1399 16.8179 23.073 16.6057C22.0061 16.3935 20.9002 16.5024 19.8952 16.9187C18.8903 17.3349 18.0313 18.0399 17.4269 18.9444C16.8226 19.8488 16.5 20.9122 16.5 22C16.5 23.4587 17.0795 24.8576 18.1109 25.8891C19.1424 26.9205 20.5413 27.5 22 27.5Z" fill="#0052FF"/>
<path d="M21.987 25.8732C24.1261 25.8732 25.8602 24.1391 25.8602 21.9999C25.8602 19.8608 24.1261 18.1267 21.987 18.1267C19.9576 18.1267 18.2928 19.6874 18.1273 21.674H23.8749V22.319H18.1267C18.2889 24.3089 19.9553 25.8732 21.987 25.8732Z" fill="white"/>
</g>
<defs>
<clipPath id="clip0_77_72">
<rect width="12" height="12" fill="white" transform="translate(16 16)"/>
</clipPath>
</defs>
</svg>
