<svg width="214" height="16" viewBox="0 0 214 16" fill="none" xmlns="http://www.w3.org/2000/svg">
<path d="M0 15.75V0H4.5V2.25H6.75V4.5H9V2.25H11.25V0H15.75V15.75H11.25V6.75H9V11.25H6.75V6.75H4.5V15.75H0ZM20.25 15.75V13.5H24.75V2.25H20.25V0H33.75V2.25H29.25V13.5H33.75V15.75H20.25ZM38.25 15.75V13.5H36V11.25H40.5V13.5H47.25V9H38.25V6.75H36V2.25H38.25V0H49.5V2.25H51.75V4.5H47.25V2.25H40.5V6.75H49.5V9H51.75V13.5H49.5V15.75H38.25ZM54 15.75V4.5H56.25V2.25H58.5V0H65.25V2.25H67.5V4.5H69.75V15.75H65.25V11.25H58.5V15.75H54ZM58.5 9H65.25V4.5H63V2.25H60.75V4.5H58.5V9ZM78.75 15.75V2.25H74.25V0H87.75V2.25H83.25V15.75H78.75ZM92.25 15.75V13.5H90V2.25H92.25V0H103.5V2.25H105.75V13.5H103.5V15.75H92.25ZM94.5 13.5H101.25V2.25H94.5V13.5ZM126 15.75V0H141.75V2.25H130.5V6.75H139.5V9H130.5V15.75H126ZM150.75 6.75H153V9H150.75V15.75H146.25V4.5H150.75V6.75ZM159.75 4.5V6.75H153V4.5H159.75ZM164.25 15.75V13.5H162V6.75H164.25V4.5H175.5V6.75H177.75V11.25H166.5V13.5H175.5V15.75H164.25ZM166.5 9H173.25V6.75H166.5V9ZM180 15.75V4.5H193.5V6.75H195.75V15.75H191.25V6.75H184.5V15.75H180ZM198 15.75V13.5H209.25V11.25H200.25V9H198V6.75H200.25V4.5H211.5V6.75H202.5V9H211.5V11.25H213.75V13.5H211.5V15.75H198Z" fill="white"/>
</svg>
