<svg width="181" height="13" viewBox="0 0 181 13" fill="none" xmlns="http://www.w3.org/2000/svg">
<path d="M0 12.25V0H3.5V1.75H5.25V3.5H7V1.75H8.75V0H12.25V12.25H8.75V5.25H7V8.75H5.25V5.25H3.5V12.25H0ZM15.75 12.25V10.5H19.25V1.75H15.75V0H26.25V1.75H22.75V10.5H26.25V12.25H15.75ZM29.75 12.25V10.5H28V8.75H31.5V10.5H36.75V7H29.75V5.25H28V1.75H29.75V0H38.5V1.75H40.25V3.5H36.75V1.75H31.5V5.25H38.5V7H40.25V10.5H38.5V12.25H29.75ZM42 12.25V3.5H43.75V1.75H45.5V0H50.75V1.75H52.5V3.5H54.25V12.25H50.75V8.75H45.5V12.25H42ZM45.5 7H50.75V3.5H49V1.75H47.25V3.5H45.5V7ZM61.25 12.25V1.75H57.75V0H68.25V1.75H64.75V12.25H61.25ZM71.75 12.25V10.5H70V1.75H71.75V0H80.5V1.75H82.25V10.5H80.5V12.25H71.75ZM73.5 10.5H78.75V1.75H73.5V10.5ZM99.75 12.25V10.5H98V8.75H101.5V10.5H106.75V7H99.75V5.25H98V1.75H99.75V0H108.5V1.75H110.25V3.5H106.75V1.75H101.5V5.25H108.5V7H110.25V10.5H108.5V12.25H99.75ZM117.25 12.25V5.25H113.75V3.5H117.25V0H120.75V3.5H124.25V5.25H120.75V12.25H117.25ZM127.75 12.25V10.5H126V3.5H129.5V10.5H134.75V3.5H138.25V12.25H127.75ZM141.75 12.25V10.5H140V5.25H141.75V3.5H148.75V0H152.25V12.25H141.75ZM143.5 10.5H148.75V5.25H143.5V10.5ZM159.25 1.75V0H162.75V1.75H159.25ZM155.75 12.25V10.5H159.25V5.25H157.5V3.5H162.75V10.5H166.25V12.25H155.75ZM169.75 12.25V10.5H168V5.25H169.75V3.5H178.5V5.25H180.25V10.5H178.5V12.25H169.75ZM171.5 10.5H176.75V5.25H171.5V10.5Z" fill="#FA75FF"/>
</svg>
