<svg width="24" height="24" viewBox="0 0 24 24" fill="none" xmlns="http://www.w3.org/2000/svg">
<path d="M14.9195 9.93658L15.7394 10.9C15.8333 11.0082 15.9166 11.0972 15.9502 11.1479C16.1955 11.3916 16.3329 11.7209 16.3328 12.0642C16.3097 12.4691 16.0458 12.7449 15.8015 13.0398L15.2276 13.7135L14.9283 14.0626C14.9176 14.0746 14.9107 14.0895 14.9084 14.1054C14.9062 14.1213 14.9087 14.1374 14.9157 14.1519C14.9226 14.1664 14.9337 14.1785 14.9476 14.1869C14.9616 14.1952 14.9776 14.1993 14.9938 14.1988H17.9851C18.442 14.1988 19.0176 14.5827 18.984 15.1656C18.9831 15.4306 18.8758 15.6845 18.6857 15.8718C18.4956 16.0592 18.238 16.1648 17.9692 16.1658H13.2848C12.9767 16.1658 12.1478 16.1989 11.9158 15.4921C11.8665 15.3443 11.8598 15.186 11.8964 15.0348C11.9638 14.8111 12.0705 14.6008 12.2116 14.4134C12.4471 14.0643 12.7022 13.7153 12.9537 13.3767C13.2777 12.9334 13.6107 12.504 13.9383 12.0519C13.95 12.0372 13.9563 12.0191 13.9563 12.0004C13.9563 11.9818 13.95 11.9637 13.9383 11.949L12.7482 10.5527C12.7405 10.5426 12.7304 10.5344 12.7189 10.5287C12.7074 10.523 12.6947 10.5201 12.6818 10.5201C12.6689 10.5201 12.6562 10.523 12.6447 10.5287C12.6332 10.5344 12.6231 10.5426 12.6154 10.5527C12.2966 10.9768 10.9011 12.8548 10.6035 13.2353C10.306 13.6158 9.57277 13.6367 9.16721 13.2353L7.30587 11.3939C7.29398 11.3822 7.27881 11.3742 7.26229 11.3709C7.24578 11.3677 7.22865 11.3693 7.21309 11.3757C7.19753 11.3821 7.18424 11.3928 7.1749 11.4066C7.16557 11.4205 7.1606 11.4367 7.16064 11.4533V14.9946C7.16502 15.2459 7.08951 15.4923 6.94469 15.6991C6.79987 15.906 6.593 16.0631 6.35306 16.1483C6.19975 16.2009 6.0359 16.2166 5.87518 16.1941C5.71445 16.1716 5.56152 16.1116 5.42911 16.019C5.29672 15.9264 5.18869 15.804 5.11404 15.6619C5.0394 15.5199 5.0003 15.3623 5 15.2023V8.83526C5.01067 8.60581 5.09445 8.38551 5.23942 8.20566C5.3844 8.02581 5.5832 7.89557 5.80759 7.83343C6.00005 7.7829 6.20266 7.7834 6.39487 7.83489C6.58707 7.88639 6.76205 7.98704 6.90208 8.12665L9.76406 10.9506C9.77259 10.9592 9.78298 10.9658 9.79441 10.97C9.80589 10.9742 9.81812 10.9758 9.83027 10.9748C9.84247 10.9738 9.85424 10.9702 9.86483 10.9642C9.87543 10.9582 9.88455 10.95 9.89157 10.9402L11.9247 8.16679C12.0186 8.0542 12.1364 7.96322 12.2698 7.90021C12.4032 7.8372 12.5489 7.80368 12.6969 7.80201H17.9851C18.1298 7.80225 18.2729 7.83293 18.4046 7.89202C18.5363 7.9511 18.6537 8.03723 18.7489 8.14463C18.8442 8.25202 18.915 8.37823 18.9568 8.51479C18.9985 8.65135 19.0102 8.79512 18.991 8.93649C18.9538 9.18173 18.8275 9.40532 18.6357 9.5658C18.4439 9.72628 18.1995 9.81275 17.9479 9.80917H14.9868C14.9719 9.80953 14.9574 9.81381 14.9447 9.82157C14.9321 9.82933 14.9218 9.84029 14.915 9.8533C14.9081 9.86631 14.9049 9.8809 14.9057 9.89554C14.9065 9.91019 14.9112 9.92436 14.9195 9.93658Z" fill="#E42575"/>
</svg>
