<svg width="24" height="24" viewBox="0 0 24 24" fill="none" xmlns="http://www.w3.org/2000/svg">
<path d="M11.8417 17.6582C14.8792 17.6582 17.3417 15.1958 17.3417 12.1582H18.3417C18.3417 15.7481 15.4315 18.6582 11.8417 18.6582C8.25182 18.6582 5.34167 15.7481 5.34167 12.1582C5.34167 8.56837 8.25182 5.65822 11.8417 5.65822C13.7035 5.65822 15.3821 6.44119 16.5667 7.6946V5.34155L17.5667 5.34155V9.67489H13.2333V8.67489L16.0983 8.67489C15.0891 7.4431 13.5569 6.65822 11.8417 6.65822C8.80411 6.65822 6.34167 9.12065 6.34167 12.1582C6.34167 15.1958 8.80411 17.6582 11.8417 17.6582Z" fill="#707A8A"/>
</svg>
