<svg width="14" height="14" viewBox="0 0 14 14" fill="none" xmlns="http://www.w3.org/2000/svg">
<path fill-rule="evenodd" clip-rule="evenodd" d="M2 0C0.895431 0 0 0.89543 0 2V12C0 13.1046 0.89543 14 2 14H12C13.1046 14 14 13.1046 14 12V2C14 0.895431 13.1046 0 12 0H2ZM10.6661 4.40717C10.959 4.70007 10.959 5.17494 10.6661 5.46783L6.53944 9.59444C6.39879 9.73509 6.20802 9.81411 6.00911 9.8141C5.8102 9.8141 5.61943 9.73508 5.47878 9.59443L3.33295 7.44858C3.04006 7.15568 3.04006 6.68081 3.33295 6.38791C3.62585 6.09502 4.10072 6.09503 4.39362 6.38792L6.00912 8.00344L9.60541 4.40717C9.8983 4.11428 10.3732 4.11428 10.6661 4.40717Z" fill="#FF00FF"/>
</svg>
