<svg width="12" height="12" viewBox="0 0 12 12" fill="none" xmlns="http://www.w3.org/2000/svg">
<g clip-path="url(#clip0_34_4175)">
<path d="M6 11.5C7.0878 11.5 8.15115 11.1774 9.0556 10.5731C9.9601 9.96875 10.6651 9.10975 11.0814 8.10475C11.4976 7.09975 11.6065 5.9939 11.3944 4.92702C11.1821 3.8601 10.6582 2.8801 9.8891 2.11091C9.1199 1.34172 8.1399 0.817899 7.073 0.605684C6.0061 0.393464 4.90024 0.502384 3.89524 0.918664C2.89025 1.33495 2.03127 2.03989 1.42692 2.94436C0.82257 3.84883 0.5 4.9122 0.5 6C0.5 7.4587 1.07946 8.85765 2.11091 9.8891C3.14236 10.9205 4.5413 11.5 6 11.5Z" fill="#0052FF"/>
<path d="M5.98699 9.87325C8.12614 9.87325 9.86024 8.13915 9.86024 6C9.86024 3.86088 8.12614 2.12677 5.98699 2.12677C3.95765 2.12677 2.29281 3.68746 2.12728 5.67405H7.87489V6.31905H2.12671C2.28893 8.30895 3.95528 9.87325 5.98699 9.87325Z" fill="white"/>
</g>
<defs>
<clipPath id="clip0_34_4175">
<rect width="12" height="12" fill="white"/>
</clipPath>
</defs>
</svg>
