<svg width="16" height="16" viewBox="0 0 16 16" fill="none" xmlns="http://www.w3.org/2000/svg">
<path d="M7.84167 13.6582C10.8792 13.6582 13.3417 11.1958 13.3417 8.15822H14.3417C14.3417 11.7481 11.4315 14.6582 7.84167 14.6582C4.25182 14.6582 1.34167 11.7481 1.34167 8.15822C1.34167 4.56837 4.25182 1.65822 7.84168 1.65822C9.70346 1.65822 11.3821 2.44119 12.5667 3.6946V1.34155L13.5667 1.34155V5.67489H9.23334V4.67489L12.0983 4.67489C11.0891 3.4431 9.5569 2.65822 7.84168 2.65822C4.80411 2.65822 2.34167 5.12065 2.34167 8.15822C2.34167 11.1958 4.80411 13.6582 7.84167 13.6582Z" fill="#FFF149"/>
</svg>
