<svg width="20" height="20" viewBox="0 0 20 20" fill="none" xmlns="http://www.w3.org/2000/svg">
<path fill-rule="evenodd" clip-rule="evenodd" d="M2.76087 9.49939C2.06734 9.77541 1.70348 10.0453 1.67051 10.3091C1.61434 10.7561 2.17356 10.932 2.93303 11.1702C3.03681 11.2032 3.14426 11.2361 3.25415 11.2728C4.00263 11.5158 5.00873 11.8004 5.53132 11.8114C6.00629 11.8212 6.53621 11.6257 7.12107 11.2251C11.1113 8.52965 13.1711 7.16786 13.3006 7.13855C13.3921 7.11779 13.5191 7.09092 13.6046 7.16786C13.6901 7.24359 13.6815 7.3877 13.673 7.42679C13.6168 7.6625 11.4263 9.70091 10.2908 10.7561C9.9367 11.0847 9.68639 11.318 9.63511 11.3717C9.52034 11.4902 9.40312 11.6038 9.29079 11.7125C8.59482 12.3817 8.07467 12.8849 9.32009 13.7057C9.91838 14.1002 10.397 14.4263 10.8744 14.7511C11.3958 15.1065 11.9159 15.4607 12.5899 15.9029C12.7609 16.0152 12.9245 16.1312 13.0844 16.2448C13.6913 16.6784 14.2371 17.0668 14.9111 17.0057C15.3018 16.9691 15.7072 16.6015 15.9123 15.5035C16.397 12.9069 17.3518 7.28389 17.5728 4.9658C17.5863 4.77333 17.5781 4.57996 17.5484 4.38933C17.5307 4.23535 17.4557 4.09368 17.3384 3.99239C17.1638 3.8495 16.8927 3.81896 16.7706 3.82141C16.22 3.83118 15.375 4.12552 11.3054 5.81829C9.88053 6.41064 7.03193 7.63808 2.76087 9.49939Z" fill="#707A8A"/>
</svg>
