<svg width="20" height="20" viewBox="0 0 20 20" fill="none" xmlns="http://www.w3.org/2000/svg">
<path d="M15.735 6.03004H16.6165V6.91157H15.735V6.03004Z" fill="white"/>
<path d="M6.02999 2.5H13.9713V3.38153H6.02999V2.5Z" fill="white"/>
<path d="M6.91149 12.2051H3.3815V6.02987H4.26496V8.6764H5.14647V6.02987H4.26496V5.1464H5.14647V3.38138L6.02999 3.38153L6.02994 8.67644H6.91145V6.02991H7.79492V8.67644H12.2051V6.02991H13.0885V8.67644H13.97V3.38138H14.8535V5.1464H15.735V6.02987H14.8535V8.6764H15.735V7.79488H16.6185V6.9114H17.5V15.735H16.6185V16.6185H15.735V17.5H4.26506V16.6185H3.3816V13.9699H6.91159L6.91149 12.2051Z" fill="white"/>
<path d="M2.5 12.2051H3.3815L3.38151 13.9701H2.5V12.2051Z" fill="white"/>
<path d="M6.91149 4.26502H7.793V5.14655H6.91149V4.26502Z" fill="white"/>
<path d="M11.3235 5.14653H12.205V6.02806H11.3235V5.14653Z" fill="white"/>
<path d="M8.67648 4.26502H11.323V5.14655H8.67648V4.26502Z" fill="white"/>
<path d="M7.79498 5.14653L8.67648 5.14655L8.6765 6.02806H7.79498V5.14653Z" fill="white"/>
<path d="M12.205 4.26502H13.0865V5.14655L12.205 5.14653L12.205 4.26502Z" fill="white"/>
</svg>
